<?xml version="1.0" encoding="UTF-8"?>
<!DOCTYPE svg PUBLIC "-//W3C//DTD SVG 1.1//EN" "http://www.w3.org/Graphics/SVG/1.1/DTD/svg11.dtd">
<svg xmlns="http://www.w3.org/2000/svg" version="1.1" width="150px" height="150px" style="shape-rendering:geometricPrecision; text-rendering:geometricPrecision; image-rendering:optimizeQuality; fill-rule:evenodd; clip-rule:evenodd" xmlns:xlink="http://www.w3.org/1999/xlink">
<g><path style="opacity:0.979" fill="#06377f" d="M 61.5,-0.5 C 70.5,-0.5 79.5,-0.5 88.5,-0.5C 121.616,7.61579 141.949,28.2825 149.5,61.5C 149.5,70.5 149.5,79.5 149.5,88.5C 141.384,121.616 120.718,141.949 87.5,149.5C 78.5,149.5 69.5,149.5 60.5,149.5C 27.384,141.384 7.05069,120.718 -0.5,87.5C -0.5,78.5 -0.5,69.5 -0.5,60.5C 7.61579,27.384 28.2825,7.05069 61.5,-0.5 Z"/></g>
<g><path style="opacity:1" fill="#dcecf7" d="M 22.5,50.5 C 28.5092,50.3338 34.5092,50.5005 40.5,51C 43.1957,57.9465 45.1957,65.1132 46.5,72.5C 48.1667,72.5 49.8333,72.5 51.5,72.5C 52.3694,69.2201 53.0361,65.8868 53.5,62.5C 52.6544,58.8272 52.1544,55.1606 52,51.5C 57.7504,50.3594 63.5837,50.1928 69.5,51C 70,51.5 70.5,52 71,52.5C 72.6667,58.5 74.3333,64.5 76,70.5C 77.3561,71.3802 78.8561,71.7135 80.5,71.5C 81.6595,64.3511 83.6595,57.5177 86.5,51C 99.5,50.3333 112.5,50.3333 125.5,51C 126.591,53.0639 126.758,55.2305 126,57.5C 123.5,59.3333 121,61.1667 118.5,63C 115.044,67.9897 116.377,70.9897 122.5,72C 130.12,79.0076 130.454,86.3409 123.5,94C 112.074,99.8096 100.574,99.9763 89,94.5C 88.1751,92.2992 88.6751,90.4659 90.5,89C 95.4494,89.4916 100.449,89.4916 105.5,89C 111.252,85.8191 111.919,81.8191 107.5,77C 105.212,76.1779 102.878,75.5112 100.5,75C 99.6433,74.3109 98.9767,73.4776 98.5,72.5C 101.167,69.8333 103.833,67.1667 106.5,64.5C 106.291,63.914 105.957,63.414 105.5,63C 100.833,62.3333 96.1667,62.3333 91.5,63C 91,63.5 90.5,64 90,64.5C 86.5751,75.7023 83.0751,86.869 79.5,98C 74.8333,98.6667 70.1667,98.6667 65.5,98C 63.619,93.6493 62.119,89.1493 61,84.5C 59.4447,82.4848 57.6114,82.1515 55.5,83.5C 53.9751,88.5865 51.9751,93.4198 49.5,98C 45.1667,98.6667 40.8333,98.6667 36.5,98C 31.471,83.9134 26.6377,69.7467 22,55.5C 21.3603,53.735 21.5269,52.0683 22.5,50.5 Z"/></g>
</svg>
